<svg xmlns="http://www.w3.org/2000/svg" viewBox="0 0 100 100"><path d="M100.00,50.00 L100.00,57.50 L100.00,59.90 L99.99,61.64 L99.99,63.06 L99.98,64.28 L99.97,65.36 L99.96,66.34 L99.95,67.23 L99.94,68.06 L99.92,68.84 L99.91,69.57 L99.89,70.26 L99.87,70.92 L99.85,71.54 L99.83,72.14 L99.80,72.72 L99.78,73.27 L99.75,73.81 L99.72,74.32 L99.69,74.82 L99.66,75.31 L99.63,75.78 L99.60,76.23 L99.56,76.68 L99.52,77.11 L99.48,77.53 L99.44,77.94 L99.40,78.34 L99.36,78.73 L99.31,79.12 L99.26,79.49 L99.22,79.86 L99.17,80.22 L99.11,80.57 L99.06,80.92 L99.01,81.26 L98.95,81.59 L98.89,81.92 L98.83,82.24 L98.77,82.55 L98.71,82.86 L98.64,83.17 L98.58,83.47 L98.51,83.76 L98.44,84.05 L98.37,84.33 L98.30,84.61 L98.22,84.89 L98.15,85.16 L98.07,85.43 L97.99,85.69 L97.91,85.95 L97.83,86.21 L97.74,86.46 L97.66,86.71 L97.57,86.95 L97.48,87.19 L97.39,87.43 L97.30,87.66 L97.20,87.89 L97.11,88.12 L97.01,88.34 L96.91,88.57 L96.81,88.78 L96.71,89.00 L96.60,89.21 L96.50,89.42 L96.39,89.63 L96.28,89.83 L96.17,90.03 L96.05,90.23 L95.94,90.43 L95.82,90.62 L95.70,90.81 L95.58,91.00 L95.46,91.18 L95.33,91.36 L95.20,91.54 L95.07,91.72 L94.94,91.90 L94.81,92.07 L94.68,92.24 L94.54,92.41 L94.40,92.58 L94.26,92.74 L94.12,92.90 L93.97,93.06 L93.83,93.22 L93.68,93.37 L93.53,93.53 L93.37,93.68 L93.22,93.83 L93.06,93.97 L92.90,94.12 L92.74,94.26 L92.58,94.40 L92.41,94.54 L92.24,94.68 L92.07,94.81 L91.90,94.94 L91.72,95.07 L91.54,95.20 L91.36,95.33 L91.18,95.46 L91.00,95.58 L90.81,95.70 L90.62,95.82 L90.43,95.94 L90.23,96.05 L90.03,96.17 L89.83,96.28 L89.63,96.39 L89.42,96.50 L89.21,96.60 L89.00,96.71 L88.78,96.81 L88.57,96.91 L88.34,97.01 L88.12,97.11 L87.89,97.20 L87.66,97.30 L87.43,97.39 L87.19,97.48 L86.95,97.57 L86.71,97.66 L86.46,97.74 L86.21,97.83 L85.95,97.91 L85.69,97.99 L85.43,98.07 L85.16,98.15 L84.89,98.22 L84.61,98.30 L84.33,98.37 L84.05,98.44 L83.76,98.51 L83.47,98.58 L83.17,98.64 L82.86,98.71 L82.55,98.77 L82.24,98.83 L81.92,98.89 L81.59,98.95 L81.26,99.01 L80.92,99.06 L80.57,99.11 L80.22,99.17 L79.86,99.22 L79.49,99.26 L79.12,99.31 L78.73,99.36 L78.34,99.40 L77.94,99.44 L77.53,99.48 L77.11,99.52 L76.68,99.56 L76.23,99.60 L75.78,99.63 L75.31,99.66 L74.82,99.69 L74.32,99.72 L73.81,99.75 L73.27,99.78 L72.72,99.80 L72.14,99.83 L71.54,99.85 L70.92,99.87 L70.26,99.89 L69.57,99.91 L68.84,99.92 L68.06,99.94 L67.23,99.95 L66.34,99.96 L65.36,99.97 L64.28,99.98 L63.06,99.99 L61.64,99.99 L59.90,100.00 L57.50,100.00 L50.00,100.00 L42.50,100.00 L40.10,100.00 L38.36,99.99 L36.94,99.99 L35.72,99.98 L34.64,99.97 L33.66,99.96 L32.77,99.95 L31.94,99.94 L31.16,99.92 L30.43,99.91 L29.74,99.89 L29.08,99.87 L28.46,99.85 L27.86,99.83 L27.28,99.80 L26.73,99.78 L26.19,99.75 L25.68,99.72 L25.18,99.69 L24.69,99.66 L24.22,99.63 L23.77,99.60 L23.32,99.56 L22.89,99.52 L22.47,99.48 L22.06,99.44 L21.66,99.40 L21.27,99.36 L20.88,99.31 L20.51,99.26 L20.14,99.22 L19.78,99.17 L19.43,99.11 L19.08,99.06 L18.74,99.01 L18.41,98.95 L18.08,98.89 L17.76,98.83 L17.45,98.77 L17.14,98.71 L16.83,98.64 L16.53,98.58 L16.24,98.51 L15.95,98.44 L15.67,98.37 L15.39,98.30 L15.11,98.22 L14.84,98.15 L14.57,98.07 L14.31,97.99 L14.05,97.91 L13.79,97.83 L13.54,97.74 L13.29,97.66 L13.05,97.57 L12.81,97.48 L12.57,97.39 L12.34,97.30 L12.11,97.20 L11.88,97.11 L11.66,97.01 L11.43,96.91 L11.22,96.81 L11.00,96.71 L10.79,96.60 L10.58,96.50 L10.37,96.39 L10.17,96.28 L9.97,96.17 L9.77,96.05 L9.57,95.94 L9.38,95.82 L9.19,95.70 L9.00,95.58 L8.82,95.46 L8.64,95.33 L8.46,95.20 L8.28,95.07 L8.10,94.94 L7.93,94.81 L7.76,94.68 L7.59,94.54 L7.42,94.40 L7.26,94.26 L7.10,94.12 L6.94,93.97 L6.78,93.83 L6.63,93.68 L6.47,93.53 L6.32,93.37 L6.17,93.22 L6.03,93.06 L5.88,92.90 L5.74,92.74 L5.60,92.58 L5.46,92.41 L5.32,92.24 L5.19,92.07 L5.06,91.90 L4.93,91.72 L4.80,91.54 L4.67,91.36 L4.54,91.18 L4.42,91.00 L4.30,90.81 L4.18,90.62 L4.06,90.43 L3.95,90.23 L3.83,90.03 L3.72,89.83 L3.61,89.63 L3.50,89.42 L3.40,89.21 L3.29,89.00 L3.19,88.78 L3.09,88.57 L2.99,88.34 L2.89,88.12 L2.80,87.89 L2.70,87.66 L2.61,87.43 L2.52,87.19 L2.43,86.95 L2.34,86.71 L2.26,86.46 L2.17,86.21 L2.09,85.95 L2.01,85.69 L1.93,85.43 L1.85,85.16 L1.78,84.89 L1.70,84.61 L1.63,84.33 L1.56,84.05 L1.49,83.76 L1.42,83.47 L1.36,83.17 L1.29,82.86 L1.23,82.55 L1.17,82.24 L1.11,81.92 L1.05,81.59 L0.99,81.26 L0.94,80.92 L0.89,80.57 L0.83,80.22 L0.78,79.86 L0.74,79.49 L0.69,79.12 L0.64,78.73 L0.60,78.34 L0.56,77.94 L0.52,77.53 L0.48,77.11 L0.44,76.68 L0.40,76.23 L0.37,75.78 L0.34,75.31 L0.31,74.82 L0.28,74.32 L0.25,73.81 L0.22,73.27 L0.20,72.72 L0.17,72.14 L0.15,71.54 L0.13,70.92 L0.11,70.26 L0.09,69.57 L0.08,68.84 L0.06,68.06 L0.05,67.23 L0.04,66.34 L0.03,65.36 L0.02,64.28 L0.01,63.06 L0.01,61.64 L0.00,59.90 L0.00,57.50 L0.00,50.00 L0.00,42.50 L0.00,40.10 L0.01,38.36 L0.01,36.94 L0.02,35.72 L0.03,34.64 L0.04,33.66 L0.05,32.77 L0.06,31.94 L0.08,31.16 L0.09,30.43 L0.11,29.74 L0.13,29.08 L0.15,28.46 L0.17,27.86 L0.20,27.28 L0.22,26.73 L0.25,26.19 L0.28,25.68 L0.31,25.18 L0.34,24.69 L0.37,24.22 L0.40,23.77 L0.44,23.32 L0.48,22.89 L0.52,22.47 L0.56,22.06 L0.60,21.66 L0.64,21.27 L0.69,20.88 L0.74,20.51 L0.78,20.14 L0.83,19.78 L0.89,19.43 L0.94,19.08 L0.99,18.74 L1.05,18.41 L1.11,18.08 L1.17,17.76 L1.23,17.45 L1.29,17.14 L1.36,16.83 L1.42,16.53 L1.49,16.24 L1.56,15.95 L1.63,15.67 L1.70,15.39 L1.78,15.11 L1.85,14.84 L1.93,14.57 L2.01,14.31 L2.09,14.05 L2.17,13.79 L2.26,13.54 L2.34,13.29 L2.43,13.05 L2.52,12.81 L2.61,12.57 L2.70,12.34 L2.80,12.11 L2.89,11.88 L2.99,11.66 L3.09,11.43 L3.19,11.22 L3.29,11.00 L3.40,10.79 L3.50,10.58 L3.61,10.37 L3.72,10.17 L3.83,9.97 L3.95,9.77 L4.06,9.57 L4.18,9.38 L4.30,9.19 L4.42,9.00 L4.54,8.82 L4.67,8.64 L4.80,8.46 L4.93,8.28 L5.06,8.10 L5.19,7.93 L5.32,7.76 L5.46,7.59 L5.60,7.42 L5.74,7.26 L5.88,7.10 L6.03,6.94 L6.17,6.78 L6.32,6.63 L6.47,6.47 L6.63,6.32 L6.78,6.17 L6.94,6.03 L7.10,5.88 L7.26,5.74 L7.42,5.60 L7.59,5.46 L7.76,5.32 L7.93,5.19 L8.10,5.06 L8.28,4.93 L8.46,4.80 L8.64,4.67 L8.82,4.54 L9.00,4.42 L9.19,4.30 L9.38,4.18 L9.57,4.06 L9.77,3.95 L9.97,3.83 L10.17,3.72 L10.37,3.61 L10.58,3.50 L10.79,3.40 L11.00,3.29 L11.22,3.19 L11.43,3.09 L11.66,2.99 L11.88,2.89 L12.11,2.80 L12.34,2.70 L12.57,2.61 L12.81,2.52 L13.05,2.43 L13.29,2.34 L13.54,2.26 L13.79,2.17 L14.05,2.09 L14.31,2.01 L14.57,1.93 L14.84,1.85 L15.11,1.78 L15.39,1.70 L15.67,1.63 L15.95,1.56 L16.24,1.49 L16.53,1.42 L16.83,1.36 L17.14,1.29 L17.45,1.23 L17.76,1.17 L18.08,1.11 L18.41,1.05 L18.74,0.99 L19.08,0.94 L19.43,0.89 L19.78,0.83 L20.14,0.78 L20.51,0.74 L20.88,0.69 L21.27,0.64 L21.66,0.60 L22.06,0.56 L22.47,0.52 L22.89,0.48 L23.32,0.44 L23.77,0.40 L24.22,0.37 L24.69,0.34 L25.18,0.31 L25.68,0.28 L26.19,0.25 L26.73,0.22 L27.28,0.20 L27.86,0.17 L28.46,0.15 L29.08,0.13 L29.74,0.11 L30.43,0.09 L31.16,0.08 L31.94,0.06 L32.77,0.05 L33.66,0.04 L34.64,0.03 L35.72,0.02 L36.94,0.01 L38.36,0.01 L40.10,0.00 L42.50,0.00 L50.00,0.00 L57.50,0.00 L59.90,0.00 L61.64,0.01 L63.06,0.01 L64.28,0.02 L65.36,0.03 L66.34,0.04 L67.23,0.05 L68.06,0.06 L68.84,0.08 L69.57,0.09 L70.26,0.11 L70.92,0.13 L71.54,0.15 L72.14,0.17 L72.72,0.20 L73.27,0.22 L73.81,0.25 L74.32,0.28 L74.82,0.31 L75.31,0.34 L75.78,0.37 L76.23,0.40 L76.68,0.44 L77.11,0.48 L77.53,0.52 L77.94,0.56 L78.34,0.60 L78.73,0.64 L79.12,0.69 L79.49,0.74 L79.86,0.78 L80.22,0.83 L80.57,0.89 L80.92,0.94 L81.26,0.99 L81.59,1.05 L81.92,1.11 L82.24,1.17 L82.55,1.23 L82.86,1.29 L83.17,1.36 L83.47,1.42 L83.76,1.49 L84.05,1.56 L84.33,1.63 L84.61,1.70 L84.89,1.78 L85.16,1.85 L85.43,1.93 L85.69,2.01 L85.95,2.09 L86.21,2.17 L86.46,2.26 L86.71,2.34 L86.95,2.43 L87.19,2.52 L87.43,2.61 L87.66,2.70 L87.89,2.80 L88.12,2.89 L88.34,2.99 L88.57,3.09 L88.78,3.19 L89.00,3.29 L89.21,3.40 L89.42,3.50 L89.63,3.61 L89.83,3.72 L90.03,3.83 L90.23,3.95 L90.43,4.06 L90.62,4.18 L90.81,4.30 L91.00,4.42 L91.18,4.54 L91.36,4.67 L91.54,4.80 L91.72,4.93 L91.90,5.06 L92.07,5.19 L92.24,5.32 L92.41,5.46 L92.58,5.60 L92.74,5.74 L92.90,5.88 L93.06,6.03 L93.22,6.17 L93.37,6.32 L93.53,6.47 L93.68,6.63 L93.83,6.78 L93.97,6.94 L94.12,7.10 L94.26,7.26 L94.40,7.42 L94.54,7.59 L94.68,7.76 L94.81,7.93 L94.94,8.10 L95.07,8.28 L95.20,8.46 L95.33,8.64 L95.46,8.82 L95.58,9.00 L95.70,9.19 L95.82,9.38 L95.94,9.57 L96.05,9.77 L96.17,9.97 L96.28,10.17 L96.39,10.37 L96.50,10.58 L96.60,10.79 L96.71,11.00 L96.81,11.22 L96.91,11.43 L97.01,11.66 L97.11,11.88 L97.20,12.11 L97.30,12.34 L97.39,12.57 L97.48,12.81 L97.57,13.05 L97.66,13.29 L97.74,13.54 L97.83,13.79 L97.91,14.05 L97.99,14.31 L98.07,14.57 L98.15,14.84 L98.22,15.11 L98.30,15.39 L98.37,15.67 L98.44,15.95 L98.51,16.24 L98.58,16.53 L98.64,16.83 L98.71,17.14 L98.77,17.45 L98.83,17.76 L98.89,18.08 L98.95,18.41 L99.01,18.74 L99.06,19.08 L99.11,19.43 L99.17,19.78 L99.22,20.14 L99.26,20.51 L99.31,20.88 L99.36,21.27 L99.40,21.66 L99.44,22.06 L99.48,22.47 L99.52,22.89 L99.56,23.32 L99.60,23.77 L99.63,24.22 L99.66,24.69 L99.69,25.18 L99.72,25.68 L99.75,26.19 L99.78,26.73 L99.80,27.28 L99.83,27.86 L99.85,28.46 L99.87,29.08 L99.89,29.74 L99.91,30.43 L99.92,31.16 L99.94,31.94 L99.95,32.77 L99.96,33.66 L99.97,34.64 L99.98,35.72 L99.99,36.94 L99.99,38.36 L100.00,40.10 L100.00,42.50 Z" fill="#0B0B0D"/><rect x="19.098" y="19.098" width="61.803" height="9.017" rx="4.508" fill="#35A6FF"/><path d="M19.098,76.393 C31.098,76.393 38.000,38.197 50,38.197 C62.000,38.197 68.902,76.393 80.902,76.393" fill="none" stroke="#3DFB7E" stroke-width="9.017" stroke-linecap="round"/></svg>