<svg xmlns="http://www.w3.org/2000/svg" viewBox="0 0 100 100"><path d="M100.00,50.00 L100.00,54.67 L100.00,56.61 L99.99,58.09 L99.98,59.34 L99.98,60.44 L99.97,61.44 L99.95,62.35 L99.94,63.21 L99.92,64.01 L99.90,64.76 L99.88,65.48 L99.86,66.17 L99.84,66.82 L99.81,67.45 L99.79,68.06 L99.76,68.65 L99.72,69.22 L99.69,69.78 L99.66,70.31 L99.62,70.84 L99.58,71.34 L99.54,71.84 L99.50,72.33 L99.45,72.80 L99.40,73.26 L99.36,73.71 L99.30,74.16 L99.25,74.59 L99.20,75.02 L99.14,75.44 L99.08,75.85 L99.02,76.25 L98.96,76.65 L98.90,77.04 L98.83,77.42 L98.76,77.79 L98.69,78.16 L98.62,78.53 L98.54,78.89 L98.47,79.24 L98.39,79.59 L98.31,79.93 L98.23,80.27 L98.15,80.60 L98.06,80.93 L97.97,81.25 L97.88,81.57 L97.79,81.89 L97.70,82.20 L97.60,82.50 L97.50,82.81 L97.40,83.10 L97.30,83.40 L97.20,83.69 L97.09,83.98 L96.98,84.26 L96.87,84.54 L96.76,84.81 L96.65,85.09 L96.53,85.36 L96.41,85.62 L96.29,85.88 L96.17,86.14 L96.04,86.40 L95.92,86.65 L95.79,86.90 L95.66,87.15 L95.53,87.39 L95.39,87.63 L95.25,87.87 L95.11,88.10 L94.97,88.33 L94.83,88.56 L94.68,88.79 L94.54,89.01 L94.38,89.23 L94.23,89.45 L94.08,89.66 L93.92,89.88 L93.76,90.09 L93.60,90.29 L93.44,90.50 L93.27,90.70 L93.10,90.90 L92.93,91.10 L92.76,91.29 L92.58,91.48 L92.41,91.67 L92.23,91.86 L92.04,92.04 L91.86,92.23 L91.67,92.41 L91.48,92.58 L91.29,92.76 L91.10,92.93 L90.90,93.10 L90.70,93.27 L90.50,93.44 L90.29,93.60 L90.09,93.76 L89.88,93.92 L89.66,94.08 L89.45,94.23 L89.23,94.38 L89.01,94.54 L88.79,94.68 L88.56,94.83 L88.33,94.97 L88.10,95.11 L87.87,95.25 L87.63,95.39 L87.39,95.53 L87.15,95.66 L86.90,95.79 L86.65,95.92 L86.40,96.04 L86.14,96.17 L85.88,96.29 L85.62,96.41 L85.36,96.53 L85.09,96.65 L84.81,96.76 L84.54,96.87 L84.26,96.98 L83.98,97.09 L83.69,97.20 L83.40,97.30 L83.10,97.40 L82.81,97.50 L82.50,97.60 L82.20,97.70 L81.89,97.79 L81.57,97.88 L81.25,97.97 L80.93,98.06 L80.60,98.15 L80.27,98.23 L79.93,98.31 L79.59,98.39 L79.24,98.47 L78.89,98.54 L78.53,98.62 L78.16,98.69 L77.79,98.76 L77.42,98.83 L77.04,98.90 L76.65,98.96 L76.25,99.02 L75.85,99.08 L75.44,99.14 L75.02,99.20 L74.59,99.25 L74.16,99.30 L73.71,99.36 L73.26,99.40 L72.80,99.45 L72.33,99.50 L71.84,99.54 L71.34,99.58 L70.84,99.62 L70.31,99.66 L69.78,99.69 L69.22,99.72 L68.65,99.76 L68.06,99.79 L67.45,99.81 L66.82,99.84 L66.17,99.86 L65.48,99.88 L64.76,99.90 L64.01,99.92 L63.21,99.94 L62.35,99.95 L61.44,99.97 L60.44,99.98 L59.34,99.98 L58.09,99.99 L56.61,100.00 L54.67,100.00 L50.00,100.00 L45.33,100.00 L43.39,100.00 L41.91,99.99 L40.66,99.98 L39.56,99.98 L38.56,99.97 L37.65,99.95 L36.79,99.94 L35.99,99.92 L35.24,99.90 L34.52,99.88 L33.83,99.86 L33.18,99.84 L32.55,99.81 L31.94,99.79 L31.35,99.76 L30.78,99.72 L30.22,99.69 L29.69,99.66 L29.16,99.62 L28.66,99.58 L28.16,99.54 L27.67,99.50 L27.20,99.45 L26.74,99.40 L26.29,99.36 L25.84,99.30 L25.41,99.25 L24.98,99.20 L24.56,99.14 L24.15,99.08 L23.75,99.02 L23.35,98.96 L22.96,98.90 L22.58,98.83 L22.21,98.76 L21.84,98.69 L21.47,98.62 L21.11,98.54 L20.76,98.47 L20.41,98.39 L20.07,98.31 L19.73,98.23 L19.40,98.15 L19.07,98.06 L18.75,97.97 L18.43,97.88 L18.11,97.79 L17.80,97.70 L17.50,97.60 L17.19,97.50 L16.90,97.40 L16.60,97.30 L16.31,97.20 L16.02,97.09 L15.74,96.98 L15.46,96.87 L15.19,96.76 L14.91,96.65 L14.64,96.53 L14.38,96.41 L14.12,96.29 L13.86,96.17 L13.60,96.04 L13.35,95.92 L13.10,95.79 L12.85,95.66 L12.61,95.53 L12.37,95.39 L12.13,95.25 L11.90,95.11 L11.67,94.97 L11.44,94.83 L11.21,94.68 L10.99,94.54 L10.77,94.38 L10.55,94.23 L10.34,94.08 L10.12,93.92 L9.91,93.76 L9.71,93.60 L9.50,93.44 L9.30,93.27 L9.10,93.10 L8.90,92.93 L8.71,92.76 L8.52,92.58 L8.33,92.41 L8.14,92.23 L7.96,92.04 L7.77,91.86 L7.59,91.67 L7.42,91.48 L7.24,91.29 L7.07,91.10 L6.90,90.90 L6.73,90.70 L6.56,90.50 L6.40,90.29 L6.24,90.09 L6.08,89.88 L5.92,89.66 L5.77,89.45 L5.62,89.23 L5.46,89.01 L5.32,88.79 L5.17,88.56 L5.03,88.33 L4.89,88.10 L4.75,87.87 L4.61,87.63 L4.47,87.39 L4.34,87.15 L4.21,86.90 L4.08,86.65 L3.96,86.40 L3.83,86.14 L3.71,85.88 L3.59,85.62 L3.47,85.36 L3.35,85.09 L3.24,84.81 L3.13,84.54 L3.02,84.26 L2.91,83.98 L2.80,83.69 L2.70,83.40 L2.60,83.10 L2.50,82.81 L2.40,82.50 L2.30,82.20 L2.21,81.89 L2.12,81.57 L2.03,81.25 L1.94,80.93 L1.85,80.60 L1.77,80.27 L1.69,79.93 L1.61,79.59 L1.53,79.24 L1.46,78.89 L1.38,78.53 L1.31,78.16 L1.24,77.79 L1.17,77.42 L1.10,77.04 L1.04,76.65 L0.98,76.25 L0.92,75.85 L0.86,75.44 L0.80,75.02 L0.75,74.59 L0.70,74.16 L0.64,73.71 L0.60,73.26 L0.55,72.80 L0.50,72.33 L0.46,71.84 L0.42,71.34 L0.38,70.84 L0.34,70.31 L0.31,69.78 L0.28,69.22 L0.24,68.65 L0.21,68.06 L0.19,67.45 L0.16,66.82 L0.14,66.17 L0.12,65.48 L0.10,64.76 L0.08,64.01 L0.06,63.21 L0.05,62.35 L0.03,61.44 L0.02,60.44 L0.02,59.34 L0.01,58.09 L0.00,56.61 L0.00,54.67 L0.00,50.00 L0.00,45.33 L0.00,43.39 L0.01,41.91 L0.02,40.66 L0.02,39.56 L0.03,38.56 L0.05,37.65 L0.06,36.79 L0.08,35.99 L0.10,35.24 L0.12,34.52 L0.14,33.83 L0.16,33.18 L0.19,32.55 L0.21,31.94 L0.24,31.35 L0.28,30.78 L0.31,30.22 L0.34,29.69 L0.38,29.16 L0.42,28.66 L0.46,28.16 L0.50,27.67 L0.55,27.20 L0.60,26.74 L0.64,26.29 L0.70,25.84 L0.75,25.41 L0.80,24.98 L0.86,24.56 L0.92,24.15 L0.98,23.75 L1.04,23.35 L1.10,22.96 L1.17,22.58 L1.24,22.21 L1.31,21.84 L1.38,21.47 L1.46,21.11 L1.53,20.76 L1.61,20.41 L1.69,20.07 L1.77,19.73 L1.85,19.40 L1.94,19.07 L2.03,18.75 L2.12,18.43 L2.21,18.11 L2.30,17.80 L2.40,17.50 L2.50,17.19 L2.60,16.90 L2.70,16.60 L2.80,16.31 L2.91,16.02 L3.02,15.74 L3.13,15.46 L3.24,15.19 L3.35,14.91 L3.47,14.64 L3.59,14.38 L3.71,14.12 L3.83,13.86 L3.96,13.60 L4.08,13.35 L4.21,13.10 L4.34,12.85 L4.47,12.61 L4.61,12.37 L4.75,12.13 L4.89,11.90 L5.03,11.67 L5.17,11.44 L5.32,11.21 L5.46,10.99 L5.62,10.77 L5.77,10.55 L5.92,10.34 L6.08,10.12 L6.24,9.91 L6.40,9.71 L6.56,9.50 L6.73,9.30 L6.90,9.10 L7.07,8.90 L7.24,8.71 L7.42,8.52 L7.59,8.33 L7.77,8.14 L7.96,7.96 L8.14,7.77 L8.33,7.59 L8.52,7.42 L8.71,7.24 L8.90,7.07 L9.10,6.90 L9.30,6.73 L9.50,6.56 L9.71,6.40 L9.91,6.24 L10.12,6.08 L10.34,5.92 L10.55,5.77 L10.77,5.62 L10.99,5.46 L11.21,5.32 L11.44,5.17 L11.67,5.03 L11.90,4.89 L12.13,4.75 L12.37,4.61 L12.61,4.47 L12.85,4.34 L13.10,4.21 L13.35,4.08 L13.60,3.96 L13.86,3.83 L14.12,3.71 L14.38,3.59 L14.64,3.47 L14.91,3.35 L15.19,3.24 L15.46,3.13 L15.74,3.02 L16.02,2.91 L16.31,2.80 L16.60,2.70 L16.90,2.60 L17.19,2.50 L17.50,2.40 L17.80,2.30 L18.11,2.21 L18.43,2.12 L18.75,2.03 L19.07,1.94 L19.40,1.85 L19.73,1.77 L20.07,1.69 L20.41,1.61 L20.76,1.53 L21.11,1.46 L21.47,1.38 L21.84,1.31 L22.21,1.24 L22.58,1.17 L22.96,1.10 L23.35,1.04 L23.75,0.98 L24.15,0.92 L24.56,0.86 L24.98,0.80 L25.41,0.75 L25.84,0.70 L26.29,0.64 L26.74,0.60 L27.20,0.55 L27.67,0.50 L28.16,0.46 L28.66,0.42 L29.16,0.38 L29.69,0.34 L30.22,0.31 L30.78,0.28 L31.35,0.24 L31.94,0.21 L32.55,0.19 L33.18,0.16 L33.83,0.14 L34.52,0.12 L35.24,0.10 L35.99,0.08 L36.79,0.06 L37.65,0.05 L38.56,0.03 L39.56,0.02 L40.66,0.02 L41.91,0.01 L43.39,0.00 L45.33,0.00 L50.00,0.00 L54.67,0.00 L56.61,0.00 L58.09,0.01 L59.34,0.02 L60.44,0.02 L61.44,0.03 L62.35,0.05 L63.21,0.06 L64.01,0.08 L64.76,0.10 L65.48,0.12 L66.17,0.14 L66.82,0.16 L67.45,0.19 L68.06,0.21 L68.65,0.24 L69.22,0.28 L69.78,0.31 L70.31,0.34 L70.84,0.38 L71.34,0.42 L71.84,0.46 L72.33,0.50 L72.80,0.55 L73.26,0.60 L73.71,0.64 L74.16,0.70 L74.59,0.75 L75.02,0.80 L75.44,0.86 L75.85,0.92 L76.25,0.98 L76.65,1.04 L77.04,1.10 L77.42,1.17 L77.79,1.24 L78.16,1.31 L78.53,1.38 L78.89,1.46 L79.24,1.53 L79.59,1.61 L79.93,1.69 L80.27,1.77 L80.60,1.85 L80.93,1.94 L81.25,2.03 L81.57,2.12 L81.89,2.21 L82.20,2.30 L82.50,2.40 L82.81,2.50 L83.10,2.60 L83.40,2.70 L83.69,2.80 L83.98,2.91 L84.26,3.02 L84.54,3.13 L84.81,3.24 L85.09,3.35 L85.36,3.47 L85.62,3.59 L85.88,3.71 L86.14,3.83 L86.40,3.96 L86.65,4.08 L86.90,4.21 L87.15,4.34 L87.39,4.47 L87.63,4.61 L87.87,4.75 L88.10,4.89 L88.33,5.03 L88.56,5.17 L88.79,5.32 L89.01,5.46 L89.23,5.62 L89.45,5.77 L89.66,5.92 L89.88,6.08 L90.09,6.24 L90.29,6.40 L90.50,6.56 L90.70,6.73 L90.90,6.90 L91.10,7.07 L91.29,7.24 L91.48,7.42 L91.67,7.59 L91.86,7.77 L92.04,7.96 L92.23,8.14 L92.41,8.33 L92.58,8.52 L92.76,8.71 L92.93,8.90 L93.10,9.10 L93.27,9.30 L93.44,9.50 L93.60,9.71 L93.76,9.91 L93.92,10.12 L94.08,10.34 L94.23,10.55 L94.38,10.77 L94.54,10.99 L94.68,11.21 L94.83,11.44 L94.97,11.67 L95.11,11.90 L95.25,12.13 L95.39,12.37 L95.53,12.61 L95.66,12.85 L95.79,13.10 L95.92,13.35 L96.04,13.60 L96.17,13.86 L96.29,14.12 L96.41,14.38 L96.53,14.64 L96.65,14.91 L96.76,15.19 L96.87,15.46 L96.98,15.74 L97.09,16.02 L97.20,16.31 L97.30,16.60 L97.40,16.90 L97.50,17.19 L97.60,17.50 L97.70,17.80 L97.79,18.11 L97.88,18.43 L97.97,18.75 L98.06,19.07 L98.15,19.40 L98.23,19.73 L98.31,20.07 L98.39,20.41 L98.47,20.76 L98.54,21.11 L98.62,21.47 L98.69,21.84 L98.76,22.21 L98.83,22.58 L98.90,22.96 L98.96,23.35 L99.02,23.75 L99.08,24.15 L99.14,24.56 L99.20,24.98 L99.25,25.41 L99.30,25.84 L99.36,26.29 L99.40,26.74 L99.45,27.20 L99.50,27.67 L99.54,28.16 L99.58,28.66 L99.62,29.16 L99.66,29.69 L99.69,30.22 L99.72,30.78 L99.76,31.35 L99.79,31.94 L99.81,32.55 L99.84,33.18 L99.86,33.83 L99.88,34.52 L99.90,35.24 L99.92,35.99 L99.94,36.79 L99.95,37.65 L99.97,38.56 L99.98,39.56 L99.98,40.66 L99.99,41.91 L100.00,43.39 L100.00,45.33 Z" fill="#0B0B0D"/><rect x="19.098" y="19.098" width="61.803" height="9.017" rx="4.508" fill="#35A6FF"/><path d="M19.098,76.393 C31.098,76.393 38.000,38.197 50,38.197 C62.000,38.197 68.902,76.393 80.902,76.393" fill="none" stroke="#3DFB7E" stroke-width="9.017" stroke-linecap="round"/></svg>