<svg xmlns="http://www.w3.org/2000/svg" viewBox="0 0 100 132.624"><rect x="0" y="0" width="100" height="100" rx="23.607" fill="#0B0B0D"/><rect x="19.098" y="20.820" width="61.803" height="9.017" rx="4.508" fill="#35A6FF"/><path d="M19.098,76.393 C31.098,76.393 38.000,38.197 50,38.197 C62.000,38.197 68.902,76.393 80.902,76.393" fill="none" stroke="#3DFB7E" stroke-width="5.573" stroke-linecap="round"/><path d="M1.722,116.312 L5.778,116.312 M3.750,116.312 L3.750,127.458" stroke="#0B0B0D" stroke-width="3.444" fill="none" stroke-linecap="round" stroke-linejoin="round"/><circle cx="14.449" cy="121.885" r="4.508" fill="#3DFB7E"/><path d="M23.120,116.312 L23.120,124.258 C23.120,126.858 24.148,127.458 25.148,127.458 C26.148,127.458 27.176,126.858 27.176,124.258 L27.176,116.312" stroke="#0B0B0D" stroke-width="3.444" fill="none" stroke-linecap="round" stroke-linejoin="round"/><path d="M37.117,117.212 C33.461,115.612 33.061,120.385 33.061,121.885 C33.061,123.385 33.461,128.158 37.117,126.558" stroke="#0B0B0D" stroke-width="3.444" fill="none" stroke-linecap="round" stroke-linejoin="round"/><path d="M43.002,116.312 L43.002,127.458 M47.058,116.312 L47.058,127.458 M43.002,121.885 L47.058,121.885" stroke="#0B0B0D" stroke-width="3.444" fill="none" stroke-linecap="round" stroke-linejoin="round"/><path d="M56.798,117.112 C54.970,115.512 52.942,117.212 52.942,118.912 C52.942,121.885 56.998,121.085 56.998,124.858 C56.998,126.558 54.970,128.258 53.142,126.658" stroke="#0B0B0D" stroke-width="3.444" fill="none" stroke-linecap="round" stroke-linejoin="round"/><path d="M62.883,116.312 L66.939,116.312 M64.911,116.312 L64.911,127.458" stroke="#0B0B0D" stroke-width="3.444" fill="none" stroke-linecap="round" stroke-linejoin="round"/><circle cx="75.610" cy="121.885" r="4.508" fill="#FF2E9D"/><path d="M84.281,127.458 L84.281,116.312 L88.337,127.458 L88.337,116.312" stroke="#0B0B0D" stroke-width="3.444" fill="none" stroke-linecap="round" stroke-linejoin="round"/><path d="M98.278,116.312 L94.222,116.312 L94.222,127.458 L98.278,127.458 M94.222,121.885 L97.478,121.885" stroke="#0B0B0D" stroke-width="3.444" fill="none" stroke-linecap="round" stroke-linejoin="round"/></svg>