<svg xmlns="http://www.w3.org/2000/svg" viewBox="0 -1 100 124.85"><rect x="0" y="0" width="100" height="100" rx="12" fill="#0B0B0D" stroke="#35A6FF" stroke-width="1.2"/><rect x="19.098" y="19.098" width="61.803" height="9.017" rx="4.508" fill="#35A6FF"/><path d="M19.098,76.393 C31.098,76.393 38.000,38.197 50,38.197 C62.000,38.197 68.902,76.393 80.902,76.393" fill="none" stroke="#3DFB7E" stroke-width="9.017" stroke-linecap="round"/><g transform="translate(0.000,122.854) scale(0.006527,-0.006527)"><path d="M552 -2Q534 -2 522.0 10.0Q510 22 510 40V1184H72Q54 1184 42.0 1196.0Q30 1208 30 1226Q30 1244 42.0 1256.0Q54 1268 72 1268H1032Q1050 1268 1062.0 1256.0Q1074 1244 1074 1226Q1074 1208 1062.0 1196.0Q1050 1184 1032 1184H594V40Q594 22 582.0 10.0Q570 -2 552 -2Z" fill="#F5F4EF"/></g><circle cx="13.512" cy="118.722" r="4.380" fill="#3DFB7E"/><g transform="translate(19.817,122.854) scale(0.006527,-0.006527)"><path d="M576 0Q363 0 266.5 96.5Q170 193 170 406V1224Q170 1242 182.0 1254.0Q194 1266 212 1266Q230 1266 242.0 1254.0Q254 1242 254 1224V406Q254 288 285.5 217.5Q317 147 387.5 115.5Q458 84 576 84H816Q934 84 1004.5 115.5Q1075 147 1106.5 217.5Q1138 288 1138 406V1224Q1138 1242 1150.0 1254.0Q1162 1266 1180 1266Q1198 1266 1210.0 1254.0Q1222 1242 1222 1224V406Q1222 193 1125.5 96.5Q1029 0 816 0Z" fill="#F5F4EF"/></g><g transform="translate(30.731,122.854) scale(0.006527,-0.006527)"><path d="M566 0Q353 0 256.5 96.5Q160 193 160 406V860Q160 1075 256.5 1170.5Q353 1266 564 1266H806Q989 1266 1076.0 1190.0Q1163 1114 1170 944Q1172 923 1161.5 911.5Q1151 900 1130 900Q1089 900 1086 942Q1080 1077 1016.5 1129.5Q953 1182 806 1182H564Q446 1182 376.0 1151.0Q306 1120 275.0 1049.5Q244 979 244 860V406Q244 288 275.5 217.5Q307 147 377.5 115.5Q448 84 566 84H806Q953 84 1016.5 136.5Q1080 189 1086 324Q1089 366 1130 366Q1151 366 1161.5 354.5Q1172 343 1170 322Q1163 153 1076.0 76.5Q989 0 806 0Z" fill="#F5F4EF"/></g><g transform="translate(41.110,122.854) scale(0.006527,-0.006527)"><path d="M222 0Q201 0 190.5 10.5Q180 21 180 42V1224Q180 1245 190.5 1255.5Q201 1266 222 1266Q243 1266 253.5 1255.5Q264 1245 264 1224V684H1110V1224Q1110 1245 1120.5 1255.5Q1131 1266 1152 1266Q1173 1266 1183.5 1255.5Q1194 1245 1194 1224V42Q1194 21 1183.5 10.5Q1173 0 1152 0Q1131 0 1120.5 10.5Q1110 21 1110 42V600H264V42Q264 21 253.5 10.5Q243 0 222 0Z" fill="#F5F4EF"/></g><g transform="translate(51.906,122.854) scale(0.006527,-0.006527)"><path d="M508 2Q327 2 243.5 85.0Q160 168 160 348Q160 366 172.0 378.0Q184 390 202 390Q220 390 232.0 378.0Q244 366 244 348Q244 203 302.5 144.5Q361 86 508 86H796Q943 86 1001.5 144.5Q1060 203 1060 348Q1060 494 1001.5 552.0Q943 610 796 610H514Q342 610 263.0 688.5Q184 767 184 938Q184 1109 262.5 1187.5Q341 1266 512 1266H806Q977 1266 1055.5 1188.0Q1134 1110 1134 940Q1134 922 1122.0 910.0Q1110 898 1092 898Q1074 898 1062.0 910.0Q1050 922 1050 940Q1050 1074 995.5 1128.0Q941 1182 806 1182H512Q377 1182 322.5 1127.5Q268 1073 268 938Q268 803 323.0 748.5Q378 694 514 694H796Q978 694 1061.0 611.0Q1144 528 1144 348Q1144 168 1061.0 85.0Q978 2 796 2Z" fill="#F5F4EF"/></g><g transform="translate(62.245,122.854) scale(0.006527,-0.006527)"><path d="M552 -2Q534 -2 522.0 10.0Q510 22 510 40V1184H72Q54 1184 42.0 1196.0Q30 1208 30 1226Q30 1244 42.0 1256.0Q54 1268 72 1268H1032Q1050 1268 1062.0 1256.0Q1074 1244 1074 1226Q1074 1208 1062.0 1196.0Q1050 1184 1032 1184H594V40Q594 22 582.0 10.0Q570 -2 552 -2Z" fill="#F5F4EF"/></g><circle cx="75.757" cy="118.722" r="4.380" fill="#FF2E9D"/><g transform="translate(82.063,122.854) scale(0.006527,-0.006527)"><path d="M222 0Q180 0 180 42V1224Q180 1266 222 1266Q245 1266 266 1242L1128 136H1110V1224Q1110 1266 1152 1266Q1194 1266 1194 1224V42Q1194 0 1152 0Q1129 0 1108 24L246 1130H264V42Q264 0 222 0Z" fill="#F5F4EF"/></g><g transform="translate(92.859,122.854) scale(0.006527,-0.006527)"><path d="M222 0Q180 0 180 42V1224Q180 1266 222 1266H982Q1024 1266 1024 1224Q1024 1182 982 1182H264V684H746Q788 684 788 642Q788 600 746 600H264V84H982Q1024 84 1024 42Q1024 0 982 0Z" fill="#F5F4EF"/></g></svg>