<svg xmlns="http://www.w3.org/2000/svg" viewBox="0 -1 100 127.77"><rect x="0" y="0" width="100" height="100" rx="23.607" fill="#0B0B0D"/><rect x="19.098" y="20.820" width="61.803" height="9.017" rx="4.508" fill="#35A6FF"/><path d="M19.098,76.393 C31.098,76.393 38.000,38.197 50,38.197 C62.000,38.197 68.902,76.393 80.902,76.393" fill="none" stroke="#3DFB7E" stroke-width="5.573" stroke-linecap="round"/><g transform="translate(0.000,124.940) scale(0.014786,-0.014786)"><path d="M262 0V642H28V700H560V642H326V0Z" fill="#0B0B0D"/></g><g transform="translate(9.434,124.940) scale(0.014786,-0.014786)"><path d="M333 -14Q210 -14 137.0 58.5Q64 131 64 271V429Q64 569 137.0 641.5Q210 714 333 714Q456 714 529.0 641.5Q602 569 602 429V271Q602 131 529.0 58.5Q456 -14 333 -14ZM333 44Q431 44 484.5 103.0Q538 162 538 269V431Q538 538 484.5 597.0Q431 656 333 656Q236 656 182.0 597.0Q128 538 128 431V269Q128 162 182.0 103.0Q236 44 333 44Z" fill="#0B0B0D"/><circle cx="333.0" cy="350.0" r="113.0" fill="#3DFB7E"/></g><g transform="translate(20.021,124.940) scale(0.014786,-0.014786)"><path d="M332 -14Q257 -14 200.5 12.5Q144 39 112.0 93.0Q80 147 80 229V700H144V229Q144 135 193.5 89.5Q243 44 332 44Q421 44 470.5 89.5Q520 135 520 229V700H584V229Q584 147 552.5 93.0Q521 39 464.0 12.5Q407 -14 332 -14Z" fill="#0B0B0D"/></g><g transform="translate(30.578,124.940) scale(0.014786,-0.014786)"><path d="M334 -14Q211 -14 137.5 58.5Q64 131 64 271V429Q64 569 137.5 641.5Q211 714 334 714Q456 714 520.5 645.5Q585 577 585 459V454H521V461Q521 547 475.5 601.5Q430 656 334 656Q237 656 182.5 597.0Q128 538 128 431V269Q128 162 182.5 103.0Q237 44 334 44Q430 44 475.5 98.5Q521 153 521 239V254H585V241Q585 123 520.5 54.5Q456 -14 334 -14Z" fill="#0B0B0D"/></g><g transform="translate(40.796,124.940) scale(0.014786,-0.014786)"><path d="M86 0V700H150V380H506V700H570V0H506V322H150V0Z" fill="#0B0B0D"/></g><g transform="translate(51.235,124.940) scale(0.014786,-0.014786)"><path d="M315 -14Q240 -14 181.0 12.5Q122 39 88.0 93.5Q54 148 54 232V251H118V232Q118 135 173.5 88.5Q229 42 315 42Q402 42 449.0 82.5Q496 123 496 186Q496 228 475.5 253.5Q455 279 418.5 294.5Q382 310 334 322L270 338Q213 353 168.0 375.5Q123 398 97.0 434.5Q71 471 71 528Q71 585 100.5 627.0Q130 669 182.0 691.5Q234 714 303 714Q372 714 427.5 690.0Q483 666 515.5 619.5Q548 573 548 503V456H484V503Q484 558 460.0 592.0Q436 626 395.0 642.0Q354 658 303 658Q230 658 182.5 624.5Q135 591 135 528Q135 486 154.5 461.0Q174 436 209.5 421.0Q245 406 293 394L357 378Q412 365 458.0 343.5Q504 322 532.0 284.5Q560 247 560 186Q560 125 529.5 80.0Q499 35 444.0 10.5Q389 -14 315 -14Z" fill="#0B0B0D"/></g><g transform="translate(61.082,124.940) scale(0.014786,-0.014786)"><path d="M262 0V642H28V700H560V642H326V0Z" fill="#0B0B0D"/></g><g transform="translate(70.516,124.940) scale(0.014786,-0.014786)"><path d="M333 -14Q210 -14 137.0 58.5Q64 131 64 271V429Q64 569 137.0 641.5Q210 714 333 714Q456 714 529.0 641.5Q602 569 602 429V271Q602 131 529.0 58.5Q456 -14 333 -14ZM333 44Q431 44 484.5 103.0Q538 162 538 269V431Q538 538 484.5 597.0Q431 656 333 656Q236 656 182.0 597.0Q128 538 128 431V269Q128 162 182.0 103.0Q236 44 333 44Z" fill="#0B0B0D"/><circle cx="333.0" cy="350.0" r="113.0" fill="#FF2E9D"/></g><g transform="translate(81.103,124.940) scale(0.014786,-0.014786)"><path d="M86 0V700H213L499 38H511V700H575V0H448L162 663H150V0Z" fill="#0B0B0D"/></g><g transform="translate(91.616,124.940) scale(0.014786,-0.014786)"><path d="M86 0V700H509V642H150V380H481V322H150V58H513V0Z" fill="#0B0B0D"/></g></svg>